<svg width="24" height="24" viewBox="0 0 24 24"  xmlns="http://www.w3.org/2000/svg">
<path d="M19.7999 8.00546C19.9395 8.00546 20.0679 8.0531 20.1698 8.13301L20.2505 8.20868L20.2701 8.23268C21.1018 9.26253 21.5999 10.5731 21.5999 12C21.5999 15.2265 19.0531 17.8582 15.8602 17.9945L15.5999 18H8.3999C8.27782 18 8.15659 17.9964 8.03631 17.9892L10.0242 19.9757C10.2324 20.184 10.2556 20.5073 10.0936 20.7412L10.0242 20.8243C9.81589 21.0325 9.49258 21.0557 9.25874 20.8937L9.17564 20.8243L6.17564 17.8243C5.96736 17.616 5.94422 17.2927 6.10621 17.0588L6.17564 16.9757L9.17564 13.9757C9.40995 13.7414 9.78985 13.7414 10.0242 13.9757C10.2324 14.184 10.2556 14.5073 10.0936 14.7412L10.0242 14.8243L8.06029 16.7882L8.22935 16.797L8.3999 16.8H15.5999C18.2509 16.8 20.3999 14.651 20.3999 12C20.3999 10.8558 19.9996 9.80515 19.3313 8.98041C19.2496 8.87894 19.1999 8.748 19.1999 8.60546C19.1999 8.27409 19.4685 8.00546 19.7999 8.00546ZM13.9756 3.17574C14.1839 2.96746 14.5072 2.94431 14.7411 3.10631L14.8242 3.17574L17.8242 6.17574L17.8936 6.25883C18.0353 6.46344 18.0353 6.73656 17.8936 6.94117L17.8242 7.02426L14.8242 10.0243L14.7411 10.0937C14.5365 10.2354 14.2633 10.2354 14.0587 10.0937L13.9756 10.0243L13.9062 9.94117C13.7645 9.73656 13.7645 9.46345 13.9062 9.25883L13.9756 9.17574L15.9395 7.21183L15.7705 7.20297L15.5999 7.2H8.3999C5.74894 7.2 3.5999 9.34903 3.5999 12C3.5999 13.1475 4.00258 14.201 4.67434 15.0268C4.75135 15.1272 4.7999 15.2567 4.7999 15.3976C4.7999 15.7289 4.53127 15.9976 4.1999 15.9976C3.9995 15.9976 3.82205 15.8993 3.71308 15.7484C2.89182 14.7211 2.3999 13.418 2.3999 12C2.3999 8.77349 4.94667 6.14182 8.13963 6.00554L8.3999 6H15.5999C15.722 6 15.8432 6.00365 15.9635 6.01084L13.9756 4.02426L13.9062 3.94117C13.7442 3.70732 13.7674 3.38402 13.9756 3.17574Z" />
</svg>
